<svg width="34" height="30" viewBox="0 0 34 30" fill="none" xmlns="http://www.w3.org/2000/svg">
<path d="M27 10.6001C27 6.2001 23.4 2.6001 19 2.6001H14C9.6 2.6001 6 6.2001 6 10.6001V15.3001C4.2 16.3001 3 18.3001 3 20.5001V27.4001H6H13.1H21.4H27V10.6001ZM21 25.9001H15V20.5001C15 20.3001 15 20.1001 15 19.9001C15 19.7001 15 19.5001 14.9 19.3001C14.8 18.9001 14.7 18.5001 14.6 18.2001C14.6 18.1001 14.5 18.0001 14.4 17.8001C14.4 17.7001 14.3 17.6001 14.3 17.6001C14 17.1001 13.7 16.7001 13.3 16.3001C13.2 16.2001 13.1 16.1001 12.9 16.0001H14.4C17.9 16.0001 20.9 18.9001 20.9 22.5001V25.9001H21ZM4.5 25.8001V20.4001C4.5 19.1001 5 17.9001 6 17.1001C6.3 16.8001 6.7 16.6001 7 16.4001C7.2 16.3001 7.3 16.3001 7.5 16.2001C8.1 16.1001 8.5 16.0001 9 16.0001C9.2 16.0001 9.4 16.0001 9.5 16.0001L9.7 16.1001C10.7 16.3001 11.5 16.7001 12.2 17.4001L12.3 17.5001C12.7 17.8001 12.9 18.1001 13.1 18.5001C13.2 18.6001 13.2 18.7001 13.2 18.8001C13.3 19.1001 13.4 19.3001 13.4 19.6001C13.4 19.7001 13.5 19.9001 13.5 20.0001C13.5 20.1001 13.5 20.3001 13.5 20.5001V25.9001H6H4.5V25.8001ZM25.5 25.8001H22.5V22.3001C22.5 17.9001 18.9 14.3001 14.5 14.3001H10.9C10.5 14.3001 10.1 14.3001 9.7 14.4001C9.5 14.4001 9.3 14.4001 9 14.4001C8.5 14.4001 8 14.5001 7.5 14.6001V10.5001C7.5 6.9001 10.4 4.0001 14 4.0001H19C22.5 4.0001 25.5 6.9001 25.5 10.5001V25.8001Z" fill="#3D3D3F"/>
<rect x="18" width="16" height="16" rx="8" fill="#367BF6"/>
<path d="M24.5067 10.9C24.5067 10.97 24.5367 11 24.6067 11H28.2467C28.3167 11 28.3467 10.97 28.3467 10.9V10.32C28.3467 10.25 28.3167 10.22 28.2467 10.22H25.5867V10.21L27.6867 7.57C28.1267 7.01 28.3467 6.47 28.3467 5.94C28.3467 5.4 28.1767 4.96 27.8267 4.61C27.4767 4.26 27.0167 4.09 26.4367 4.09C25.8667 4.09 25.4167 4.25 25.0767 4.57C24.7467 4.88 24.5567 5.26 24.5067 5.7C24.4967 5.76 24.5267 5.8 24.5867 5.82L25.1967 5.95C25.2567 5.96 25.2967 5.94 25.3067 5.87C25.4167 5.2 25.7867 4.87 26.4167 4.87C27.0667 4.87 27.4867 5.31 27.4867 5.94C27.4867 6.32 27.3267 6.71 27.0067 7.12L24.5567 10.24C24.5267 10.28 24.5067 10.33 24.5067 10.38V10.9Z" fill="white"/>
</svg>
