<svg width="50" height="17" viewBox="0 0 50 17" fill="none" xmlns="http://www.w3.org/2000/svg">
<path d="M8 0.961548C12.1421 0.961548 15.5 4.31941 15.5 8.46155V12.4615C15.5 14.3945 13.933 15.9615 12 15.9615H4C2.067 15.9615 0.5 14.3945 0.5 12.4615V8.46155C0.5 4.31941 3.85786 0.961548 8 0.961548Z" stroke="#535355"/>
<path d="M2 8.46155C2 5.14784 4.68629 2.46155 8 2.46155C11.3137 2.46155 14 5.14784 14 8.46155V11.4615C14 13.1184 12.6569 14.4615 11 14.4615H5C3.34315 14.4615 2 13.1184 2 11.4615V8.46155Z" fill="#367BF6"/>
<path d="M21 8.46155C21 5.14784 23.6863 2.46155 27 2.46155C30.3137 2.46155 33 5.14784 33 8.46155V11.4615C33 13.1184 31.6569 14.4615 30 14.4615H24C22.3431 14.4615 21 13.1184 21 11.4615V8.46155Z" fill="#E44C44"/>
<path d="M44 2.96155C47.0376 2.96155 49.5 5.42398 49.5 8.46155V11.4615C49.5 12.8423 48.3807 13.9615 47 13.9615H41C39.6193 13.9615 38.5 12.8423 38.5 11.4615V8.46155C38.5 5.42398 40.9624 2.96155 44 2.96155Z" fill="#535355" stroke="#535355"/>
</svg>
