<svg width="40" height="8" viewBox="0 0 40 8" fill="none" xmlns="http://www.w3.org/2000/svg">
<path d="M4 0.5C5.933 0.5 7.5 2.067 7.5 4V6C7.5 6.82843 6.82843 7.5 6 7.5H2C1.17157 7.5 0.5 6.82843 0.5 6V4C0.5 2.067 2.067 0.5 4 0.5Z" fill="white" stroke="#28282A"/>
<path d="M16 4C16 1.79086 17.7909 0 20 0C22.2091 0 24 1.79086 24 4V6C24 7.10457 23.1046 8 22 8H18C16.8954 8 16 7.10457 16 6V4Z" fill="#367BF6"/>
<path d="M36 0.5C37.933 0.5 39.5 2.067 39.5 4V6C39.5 6.82843 38.8284 7.5 38 7.5H34C33.1716 7.5 32.5 6.82843 32.5 6V4C32.5 2.067 34.067 0.5 36 0.5Z" fill="white" stroke="#28282A"/>
</svg>
