<svg width="42" height="42" viewBox="0 0 42 42" fill="none" xmlns="http://www.w3.org/2000/svg">
<path d="M31 1.24951H11C5.47715 1.24951 1 5.72666 1 11.2495V31.2495C1 36.7724 5.47715 41.2495 11 41.2495H31C36.5228 41.2495 41 36.7724 41 31.2495V11.2495C41 5.72666 36.5228 1.24951 31 1.24951Z" stroke="#3D3D3F" stroke-width="1.5" stroke-linecap="round" stroke-linejoin="round"/>
<path d="M28.9999 19.9891C29.2467 21.6536 28.9624 23.3536 28.1874 24.8472C27.4124 26.3408 26.1862 27.552 24.6832 28.3085C23.1801 29.065 21.4768 29.3283 19.8155 29.061C18.1542 28.7937 16.6194 28.0093 15.4296 26.8195C14.2397 25.6296 13.4554 24.0949 13.188 22.4336C12.9207 20.7722 13.184 19.0689 13.9406 17.5659C14.6971 16.0628 15.9083 14.8366 17.4019 14.0616C18.8955 13.2866 20.5954 13.0023 22.2599 13.2491C23.9577 13.5009 25.5296 14.2921 26.7433 15.5058C27.957 16.7194 28.7481 18.2913 28.9999 19.9891Z" stroke="#3D3D3F" stroke-width="1.5" stroke-linecap="round" stroke-linejoin="round"/>
<path d="M32 10.2495H32.02" stroke="#3D3D3F" stroke-width="1.5" stroke-linecap="round" stroke-linejoin="round"/>
</svg>
