<svg width="58" height="11" viewBox="0 0 58 11" fill="none" xmlns="http://www.w3.org/2000/svg">
<path d="M5 0.706543L6.545 3.83654L10 4.34154L7.5 6.77654L8.09 10.2165L5 8.59154L1.91 10.2165L2.5 6.77654L0 4.34154L3.455 3.83654L5 0.706543Z" fill="#F5C142"/>
<path d="M17 0.706543L18.545 3.83654L22 4.34154L19.5 6.77654L20.09 10.2165L17 8.59154L13.91 10.2165L14.5 6.77654L12 4.34154L15.455 3.83654L17 0.706543Z" fill="#F5C142"/>
<path d="M29 0.706543L30.545 3.83654L34 4.34154L31.5 6.77654L32.09 10.2165L29 8.59154L25.91 10.2165L26.5 6.77654L24 4.34154L27.455 3.83654L29 0.706543Z" fill="#F5C142"/>
<path d="M41 0.706543L42.545 3.83654L46 4.34154L43.5 6.77654L44.09 10.2165L41 8.59154L37.91 10.2165L38.5 6.77654L36 4.34154L39.455 3.83654L41 0.706543Z" fill="#F5C142"/>
<path d="M53 0.706543L54.545 3.83654L58 4.34154L55.5 6.77654L56.09 10.2165L53 8.59154L49.91 10.2165L50.5 6.77654L48 4.34154L51.455 3.83654L53 0.706543Z" fill="#F5C142"/>
</svg>
