<svg width="51" height="42" viewBox="0 0 51 42" fill="none" xmlns="http://www.w3.org/2000/svg">
<path d="M50.0423 1.27193C47.9076 2.7777 45.5441 3.92937 43.0427 4.6826C41.7001 3.1389 39.9158 2.04477 37.9312 1.54818C35.9465 1.05159 33.8572 1.17651 31.9459 1.90603C30.0345 2.63555 28.3934 3.93448 27.2443 5.62715C26.0952 7.31981 25.4937 9.32454 25.5212 11.3702V13.5994C21.6036 13.701 17.7218 12.8321 14.2214 11.0702C10.721 9.30836 7.71059 6.70813 5.45839 3.50112C5.45839 3.50112 -3.45839 23.5639 16.6044 32.4807C12.0134 35.597 6.54436 37.1596 1 36.9391C21.0628 48.0851 45.5839 36.9391 45.5839 11.3033C45.5819 10.6824 45.5222 10.063 45.4056 9.45308C47.6807 7.20938 49.2862 4.37656 50.0423 1.27193V1.27193Z" stroke="#3D3D3F" stroke-width="1.5" stroke-linecap="round" stroke-linejoin="round"/>
</svg>
